<?xml version="1.0" standalone="no"?>
<!DOCTYPE svg PUBLIC "-//W3C//DTD SVG 1.1//EN" "http://www.w3.org/Graphics/SVG/1.1/DTD/svg11.dtd" >
<!--
2013-9-30: Created.
-->
<svg>
<metadata>
Created by iconfont
</metadata>
<defs>

<font id="iconfont" horiz-adv-x="1024" >
  <font-face
    font-family="iconfont"
    font-weight="500"
    font-stretch="normal"
    units-per-em="1024"
    ascent="896"
    descent="-128"
  />
    <missing-glyph />
    
    <glyph glyph-name="icon03" unicode="&#58900;" d="M482.222813 325.964348l49.28652 0 16.427134 63.361073-49.28652 0L482.222813 325.964348zM859.400175 724.418292 164.599825 724.418292c-54.819536 0-99.257631-44.438095-99.257631-99.257631l0-545.919531c0-54.810327 44.437072-99.257631 99.257631-99.257631l241.051031 0 0-148.985196 165.525917 148.985196 288.223401 0c54.81442 0 99.257631 44.448328 99.257631 99.257631l0 545.919531C958.657806 679.980197 914.215618 724.418292 859.400175 724.418292zM649.977491 393.245707l-52.327786 0-14.436804-61.241806 55.94108 0-9.022491-37.58399-55.936987 0-19.851117-80.715323-50.52165 0 19.851117 80.715323-52.328809 0-19.851117-80.715323-50.52165 0 19.847024 80.715323L363.080296 294.419911l9.022491 37.58399 57.738006 0 14.436804 61.241806-59.544141 0 9.022491 37.58399 59.544141 0 18.044982 80.725556 50.52165 0-18.044982-80.725556 52.328809 0 19.846 80.725556 50.526767 0-19.851117-80.725556 54.134945 0L649.977491 393.245707z"  horiz-adv-x="1024" />

    
    <glyph glyph-name="fangdajing" unicode="&#58891;" d="M961.341938-138.20939c-11.211343-11.005658-29.443589-11.005658-40.663118 0L690.544419 88.282041c-64.236-51.257407-145.998165-82.105996-235.123019-82.105996-206.29546 0-373.535415 164.56708-373.535415 367.641171 0 202.998367 167.239955 367.574656 373.535415 367.574656 206.294436 0 373.538485-164.577313 373.538485-367.574656 0-94.944396-36.888142-181.199898-96.90812-246.405993l229.290173-225.581712C972.566584-109.249825 972.566584-127.130054 961.341938-138.20939L961.341938-138.20939zM455.420377 684.804063c-174.532035 0-316.103378-139.265834-316.103378-310.986847 0-171.797761 141.576459-311.062572 316.103378-311.062572 174.60162 0 316.112588 139.265834 316.112588 311.062572C771.533988 545.538229 630.021997 684.804063 455.420377 684.804063L455.420377 684.804063zM455.420377 684.804063"  horiz-adv-x="1024" />

    
    <glyph glyph-name="option_comment" unicode="&#58901;" d="M1008.114 812.498c0 36.186-28.436 67.056-63.506 67.056l-867.617-0.024c-35.309 0-76.351-48.844-76.351-84.243l0.006-645.136c0-34.329 28.014-62.125 62.555-62.125l243.945-6.159 212.497-209.829 181.586 209.829h262.718c35.253 0 44.173 17.652 44.173 52.692l-0.006 677.941zM317.138 418.591h-131.309v128.382h131.309v-128.382zM580.177 418.591h-131.315v128.382h131.315v-128.382zM832.722 417.536h-131.259v125.869h131.259v-125.869z"  horiz-adv-x="1024" />

    
    <glyph glyph-name="zufang" unicode="&#59518;" d="M193.320449 659.182386l-73.307609 0c-26.994818 0-48.873104-21.917172-48.873104-48.987714l0-392.011208 122.180713 0L193.320449 659.182386zM779.791557 659.182386 706.483948 659.182386 706.483948 781.707954c0 27.070542-21.878287 48.986691-48.873104 48.986691L364.37529 830.694645c-26.994818 0-48.872081-21.916149-48.872081-48.986691l0-122.525568-73.309656 0 0-440.998923 537.598005 0L779.791557 659.182386zM364.37529 757.194654c0 13.536294 10.939143 24.514323 24.435529 24.514323L633.174292 781.708977c13.497409 0 24.436552-10.978029 24.436552-24.514323l0-98.011244L364.37529 659.18341 364.37529 757.194654zM901.974317 659.182386l-73.309656 0 0-440.998923 122.181737 0L950.846398 610.195695C950.846398 637.265214 928.967088 659.182386 901.974317 659.182386zM71.140759 46.672228c0-27.071565 21.877263-49.025577 48.873104-49.025577l73.53376 0c-0.13303 2.034333-0.226151 4.077875-0.226151 6.147 0 50.744731 41.027415 91.866291 91.63707 91.866291 50.608631 0 91.635023-41.122583 91.635023-91.866291 0-2.068102-0.092098-4.112668-0.226151-6.147l269.252327 0c-0.135076 2.034333-0.228197 4.077875-0.228197 6.147 0 50.744731 41.027415 91.866291 91.636047 91.866291 50.609655 0 91.63707-41.122583 91.63707-91.866291 0-2.068102-0.093121-4.112668-0.228197-6.147l73.53683 0c26.992771 0 48.873104 21.954011 48.873104 49.025577L950.846398 169.160957 71.140759 169.160957 71.140759 46.672228zM284.958542 71.166085c-37.113269 0-67.199495-30.181393-67.199495-67.372433 0-37.225833 30.086226-67.388806 67.199495-67.388806 37.112246 0 67.198471 30.163997 67.198471 67.388806C352.157014 40.984692 322.069765 71.166085 284.958542 71.166085zM737.027591 71.166085c-37.112246 0-67.199495-30.181393-67.199495-67.372433 0-37.225833 30.087249-67.388806 67.199495-67.388806 37.114293 0 67.200518 30.163997 67.200518 67.388806C804.228109 40.984692 774.141884 71.166085 737.027591 71.166085z"  horiz-adv-x="1024" />

    
    <glyph glyph-name="ershoufang" unicode="&#58884;" d="M920.387368 426.186105 875.008 379.957895c-12.544-12.759579-32.862316-12.759579-45.392842 0L511.932632 621.231158 194.250105 379.957895c-12.530526-12.759579-32.848842-12.759579-45.392842 0l-45.365895 46.241684c-12.544 12.773053-12.544 33.455158 0 46.241684L323.759158 639.730526l165.470316 125.655579c12.544 12.773053 32.848842 12.773053 45.392842 0l385.751579-292.958316C932.931368 459.654737 932.931368 438.972632 920.387368 426.186105L920.387368 426.186105zM188.631579 720.842105c0 14.874947 12.058947 26.960842 26.947368 26.960842l80.842105 0C311.309474 747.802947 323.368421 735.717053 323.368421 720.842105l0-46.618947L188.631579 565.450105 188.631579 720.842105 188.631579 720.842105zM197.766737 352.956632l291.557053 224.404211c12.368842 12.395789 32.458105 12.395789 44.853895 0l291.557053-224.404211c7.909053-7.909053 10.698105-18.944 8.515368-29.116632C834.923789 321.536 835.368421 319.151158 835.368421 316.631579l0-296.434526C835.368421 5.322105 823.309474-6.736842 808.407579-6.736842L215.592421-6.736842c-14.901895 0-26.947368 12.058947-26.947368 26.933895L188.645053 316.631579c0 2.209684 0.336842 4.325053 0.848842 6.4C186.960842 333.419789 189.655579 344.845474 197.766737 352.956632L197.766737 352.956632zM385.603368 148.547368c9.660632-9.148632 22.528-6.871579 29.736421-6.871579 38.440421 0 125.049263 0 163.098947 0 7.114105 0 19.415579-2.250105 30.221474 6.763789 27.850105 23.228632 118.016 98.411789 118.016 98.411789s8.771368 39.114105-29.682526 28.038737c-30.221474-8.704-118.662737-70.103579-118.662737-70.103579l-66.775579 0-59.338105 42.064842c0 0 55.834947 7.410526 81.583158 14.012632 36.971789 9.498947 29.035789 42.078316 7.410526 42.078316-37.079579 0-120.643368 0-156.106105 0-7.073684 0-19.563789 2.452211-28.968421-7.410526-17.178947-18.027789-59.688421-62.706526-59.688421-62.706526C296.434526 232.825263 363.156211 169.768421 385.603368 148.547368L385.603368 148.547368z"  horiz-adv-x="1024" />

    
    <glyph glyph-name="feiji" unicode="&#59015;" d="M998.048158 866.089713c-0.624801 0.645354-1.457185 1.060518-2.207357 1.792193-0.624801 0.624801-1.083126 1.49829-1.666822 2.125147C975.006555 889.486878 949.215003 897.736722 924.130464 895.695841c-18.916682-0.709067-37.331878-7.250984-51.626264-21.730343l-80.500716-80.480163-139.291642-138.689449L112.875289 721.442044l-73.126416-72.187159 399.334358-203.625624-175.832242-175.230049L36.583761 285.357448 0 249.209404l17.500602-10.582572-7.415405-7.625042 193.168424-105.50099 31.166076-19.062606 19.124264-31.209236 105.542094-193.273242 7.583937 7.520223 10.541467-17.477994 36.125437 36.583761-14.999342 226.626122 175.334867 175.813745 203.584519-399.315861 72.207712 73.103809-66.666711 539.816 138.707946 139.293697L1002.045653 744.42199c14.458807 14.333435 21.041828 32.666421 21.66663 51.708474 2.042936 25.041379-6.165802 50.83293-25.664125 69.959249z"  horiz-adv-x="1024" />

    
    <glyph glyph-name="baoxian" unicode="&#58919;" d="M857.088 679.936C738.304 679.936 580.096 834.56 512 834.56S285.696 679.936 166.912 679.936c0 0-32.256-7.68-32.256-45.056v-357.888s71.68-248.832 376.832-346.624c305.152 97.792 376.832 346.624 376.832 346.624V634.88c0.512 37.376-31.232 45.056-31.232 45.056z m-152.064-165.888L460.8 252.416c-4.608-4.608-8.704-6.656-15.36-6.656-4.608 0-11.264 2.048-15.36 6.656l-111.104 119.808c-8.704 8.704-8.704 24.576 0 33.28 4.608 4.608 11.264 6.656 15.36 6.656 4.608 0 11.264-2.048 15.36-6.656L445.44 303.616l228.352 246.272c4.608 4.608 8.704 6.656 15.36 6.656s11.264-2.048 15.36-8.704c9.216-9.216 9.216-24.576 0.512-33.792z"  horiz-adv-x="1024" />

    
    <glyph glyph-name="xiezilouchuzu" unicode="&#59256;" d="M1066.164706-128H18.070588C8.101647-128 0-120.094118 0-110.351059c0 9.758118 8.101647 17.664 18.070588 17.664h36.141177v578.108235l469.835294 163.418353v-741.526588h36.141176V896l469.835294-105.923765v-882.763294h36.141177c9.968941 0 18.070588-7.905882 18.070588-17.664 0-9.743059-8.101647-17.648941-18.070588-17.648941zM271.058824 101.511529c0 9.758118-8.101647 17.664-18.070589 17.664H180.705882c-9.968941 0-18.070588-7.905882-18.070588-17.664v-194.198588H271.058824V101.496471z m144.564705 0c0 9.758118-8.101647 17.664-18.070588 17.664h-72.282353c-9.968941 0-18.070588-7.905882-18.070588-17.664v-194.198588h108.423529V101.496471z m325.270589 547.312942c0 9.743059-8.101647 17.664-18.070589 17.664h-36.141176c-9.968941 0-18.070588-7.920941-18.070588-17.664v-35.312942c0-9.743059 8.101647-17.648941 18.070588-17.648941H722.823529c9.968941 0 18.070588 7.905882 18.070589 17.648941v35.312942z m0-176.549647c0 9.743059-8.101647 17.648941-18.070589 17.648941h-36.141176c-9.968941 0-18.070588-7.905882-18.070588-17.648941v-35.312942c0-9.743059 8.101647-17.648941 18.070588-17.648941H722.823529c9.968941 0 18.070588 7.905882 18.070589 17.648941v35.312942z m0-176.549648c0 9.743059-8.101647 17.648941-18.070589 17.648942h-36.141176c-9.968941 0-18.070588-7.905882-18.070588-17.648942v-35.312941c0-9.743059 8.101647-17.648941 18.070588-17.648941H722.823529c9.968941 0 18.070588 7.905882 18.070589 17.648941v35.312941z m180.705882 353.099295c0 9.743059-8.101647 17.664-18.070588 17.664h-36.141177c-9.968941 0-18.070588-7.920941-18.070588-17.664v-35.312942c0-9.743059 8.101647-17.648941 18.070588-17.648941H903.529412c9.968941 0 18.070588 7.905882 18.070588 17.648941v35.312942z m0-176.549647c0 9.743059-8.101647 17.648941-18.070588 17.648941h-36.141177c-9.968941 0-18.070588-7.905882-18.070588-17.648941v-35.312942c0-9.743059 8.101647-17.648941 18.070588-17.648941H903.529412c9.968941 0 18.070588 7.905882 18.070588 17.648941v35.312942z m0-176.549648c0 9.743059-8.101647 17.648941-18.070588 17.648942h-36.141177c-9.968941 0-18.070588-7.905882-18.070588-17.648942v-35.312941c0-9.743059 8.101647-17.648941 18.070588-17.648941H903.529412c9.968941 0 18.070588 7.905882 18.070588 17.648941v35.312941z"  horiz-adv-x="1084" />

    
    <glyph glyph-name="richscan_icon" unicode="&#58880;" d="M122.9027099609375 475.55181884765625a22.88177490234375 22.88177490234375 0 0 1 22.890014648437504 22.890014648437504V750.207275390625h251.76544189453125a22.890014648437504 22.890014648437504 0 1 1 0 45.78002929687501H122.9027099609375A22.88177490234375 22.88177490234375 0 0 1 100.0126953125 773.0972900390625v-274.65545654296875a22.88177490234375 22.88177490234375 0 0 1 22.890014648437504-22.890014648437504zM397.55816650390625 17.792724609375H145.792724609375V269.55816650390625a22.890014648437504 22.890014648437504 0 1 1-45.78002929687501 0v-274.65545654296875A22.88177490234375 22.88177490234375 0 0 1 122.9027099609375-27.9873046875h274.65545654296875a22.890014648437504 22.890014648437504 0 0 1 0 45.78002929687501zM901.0972900390625 795.9873046875H626.4418334960938a22.890014648437504 22.890014648437504 0 1 1 0-45.78002929687501h251.76544189453125v-251.76544189453125a22.890014648437504 22.890014648437504 0 1 1 45.78002929687501 0V773.0972900390625A22.873535156250004 22.873535156250004 0 0 1 901.0972900390625 795.9873046875zM901.0972900390625 292.44818115234375a22.873535156250004 22.873535156250004 0 0 1-22.890014648437504-22.890014648437504v-251.76544189453125H626.4418334960938a22.890014648437504 22.890014648437504 0 1 1 0-45.78002929687501h274.65545654296875a22.873535156250004 22.873535156250004 0 0 1 22.890014648437504 22.890014648437504V269.55816650390625a22.873535156250004 22.873535156250004 0 0 1-22.890014648437504 22.890014648437504zM901.0972900390625 406.8900146484375H122.9027099609375a22.890014648437504 22.890014648437504 0 0 1 0-45.78002929687501h778.194580078125a22.890014648437504 22.890014648437504 0 0 1 0 45.78002929687501z"  horiz-adv-x="1024" />

    
    <glyph glyph-name="iconjia" unicode="&#58886;" d="M902.3434168395388 325.0641317984599h-331.7799727632157v-331.8328909365038c0-32.33699770347935-26.226446372843796-58.53748421772893-58.56444253242294-58.53748421772893-32.33699770347935 0-58.56344407632318 26.200486514249597-58.56344407632318 58.53748421772893v331.8328909365038h-331.7819696754152c-32.36395601817335 0-58.56344407632318 26.200486514249597-58.56344407632318 58.53748421772893 0 32.32501623028203 26.20248342644915 58.53748421772893 58.56344407632318 58.53748421772893h331.7799727632157v331.8328909365038c0 32.32501623028203 26.226446372843796 58.53748421772893 58.56344407632318 58.53748421772893 32.33799615957912 0 58.56444253242294-26.213466443546704 58.56444253242294-58.53748421772893v-331.8338893926036h331.7799727632157c32.36395601817335 0 58.56444253242294-26.21146953134715 58.56444253242294-58.535487305529394-0.0009984560997770514-32.33699770347935-26.200486514249597-58.535487305529394-58.56444253242294-58.535487305529394z"  horiz-adv-x="1024" />

    
    <glyph glyph-name="qianbao" unicode="&#58895;" d="M937.27 31.95a110.88 110.88 0 0 0-6.09-37.27 94.54 94.54 0 0 0-17.31-30.49 81.13 81.13 0 0 0-26.16-20.51 73.16 73.16 0 0 0-32.81-7.34h-680a79.07 79.07 0 0 0-33.71 7.34A90.67 90.67 0 0 0 113-35.81a99 99 0 0 0-26.34 67.76V556.87q0 40 24.82 67.86T172 652.6h680c23.74 0 43.84-9.31 60.46-27.87s24.82-41.17 24.82-67.86V413.8H724.71q-35.58 0-60.46-27.34t-24.81-67.31q0.92-27.37 10.3-48.41c5-11.91 13.26-22.8 24.87-32.57s28.24-14.75 50.09-14.75h212.6v-191.47zM803 697.37H355.36q53.25 25.14 100.56 48.49 41.39 19.74 81.79 39.47t63.13 30.53q34.58 17.09 61.68 15.71T708.38 823a123 123 0 0 0 37.44-26L803 697.37zM668.71 294.95c0 12.45 4.27 22.94 12.92 31.46s19.24 12.82 31.84 12.82 23.24-4.21 31.83-12.82a42.77 42.77 0 0 0 13-31.46 44 44 0 0 0-13-32q-12.9-13.22-31.83-13.24c-12.6 0-23.24 4.43-31.84 13.24a44.43 44.43 0 0 0-12.92 32z"  horiz-adv-x="1024" />

    
    <glyph glyph-name="xinfang" unicode="&#59707;" d="M709.815875 896L81.459625 686.54725c-25.705724 0-46.5445-20.836776-46.5445-46.5435v-721.44725c0-25.703724 20.839776-46.5445 46.5445-46.5445h674.90075V849.4555C756.360375 875.160224 735.521599 896 709.815875 896zM314.184125 186.188625c0-12.851862-10.418888-23.27275-23.27275-23.27275h-93.09c-12.853862 0-23.27275 10.419888-23.27275 23.27275v93.091c0 12.853862 10.418888 23.27275 23.27275 23.27275h93.09c12.853862 0 23.27275-10.418888 23.27275-23.27275v-93.091z m0 255.99825c0-12.853862-10.418888-23.27275-23.27275-23.27275h-93.09c-12.853862 0-23.27275 10.418888-23.27275 23.27275v93.089c0 12.853862 10.418888 23.27275 23.27275 23.27275h93.09c12.853862 0 23.27275-10.418888 23.27275-23.27275v-93.089zM756.360375 430.552l186.18-23.27275c25.705724 0 46.5445-20.840776 46.5445-46.5445v-442.17925c0-25.703724-20.839776-46.5445-46.5445-46.5445H756.360375V430.552z"  horiz-adv-x="1024" />

    
    <glyph glyph-name="ren" unicode="&#59054;" d="M857.7 152.39999999999998l-182.8 71.2s-34.9 13.5-48.4 26.8c-8.7 8.6-8.1 28.7-0.4 54.5 7.7 25.8 101.4 130.6 101.4 225.8 0 147-96.7 266.2-215.9 266.2S295.8 677.7 295.8 530.7c0-91.2 83.5-199.9 93.8-219.6 10.3-19.8 7.8-49.9-0.3-59-12.2-13.7-56.9-27.4-56.9-27.4l-164.8-73.4c-38.5-13.8-68.7-50.1-68.7-91.1v-19.4c0-44.7 36.3-72.1 80.9-72.1h665.5c44.6 0 81 27.4 81 72.1v19.4c0.1 41-30.1 78.4-68.6 92.2z m0 0"  horiz-adv-x="1024" />

    
    <glyph glyph-name="arrow-left-copy" unicode="&#58885;" d="M875.591 550.05366667c0 0-317.444-413.412-317.444-413.412-22.06-28.734-69.89-28.734-91.951-1e-8 0 0-317.444 413.412-317.444 413.41200001-20.453 26.633 5.128 59.94100001 46.038 59.94199998 0 0 634.826 0 634.826 2e-8 40.847 0 66.43-33.308 45.97600001-59.941 0 0 0 0 0 0z"  horiz-adv-x="1024" />

    
    <glyph glyph-name="erji" unicode="&#58942;" d="M1121.409533 341.5605c0 95.295432-43.271781 173.087124-97.733279 178.304116A480.889662 480.889662 0 0 1 560.290332 896 480.91404 480.91404 0 0 1 96.880032 519.767102C42.80859 513.891891 0 436.368362 0 341.5605c0-98.610903 46.319089-178.572279 103.462219-178.572279s103.462219-1.340816 103.462218 178.572279c0 102.389566-15.675355 146.270809-40.053823 164.749687A408.753775 408.753775 0 0 0 558.58384 821.499401 408.778153 408.778153 0 0 0 950.3702 505.94451h2.194062c-23.23268-18.795799-38.079167-62.579528-38.079167-164.38401 0-78.644938 9.239439-122.648073 24.549118-147.294704a559.656492 559.656492 0 0 0-117.479838-142.809066 358.412238 358.412238 0 0 0-159.873994-69.332364 137.006991 137.006991 0 0 1-108.654832 43.881243c-66.480083 0-120.356497-34.446775-120.356497-76.914067S486.472331-127.89566 552.952413-127.89566a147.636003 147.636003 0 0 1 99.610421 33.7398 1080.136786 1080.136786 0 0 1 191.541624 114.5788 973.188447 973.188447 0 0 1 130.229777 146.660864 159.069504 159.069504 0 0 1 43.613079-4.022447c57.143129 0 103.462219 79.961375 103.462219 178.572278v-0.073135z"  horiz-adv-x="1121" />

    
    <glyph glyph-name="liwuhe" unicode="&#58981;" d="M1115.880727 480.131879v127.534545c-3.537455 93.308121-100.352 98.055758-100.352 98.055758l-49.617454-1.210182s75.589818 100.38303-15.32897 164.150303c-179.510303 107.457939-392.067879-144.073697-392.067879-144.073697l-2.358303-850.230303H939.907879c105.099636 1.148121 106.278788 90.918788 106.278788 90.918788V354.986667c-1.179152 21.224727-7.074909 34.226424-7.074909 34.226424 81.485576 22.434909 76.737939 90.918788 76.737939 90.918788zM883.184485 829.098667c64.977455-21.845333 34.84703-67.304727 34.84703-67.304728s-1.768727-19.48703-41.332363-56.692363h-245.604849s132.251152 147.021576 252.090182 123.997091z m93.897697-487.113697v-377.887031s-3.537455-29.540848-39.563637-28.361697H592.120242V384.496485h354.862546s32.457697-4.716606 30.099394-42.511515z m69.66303 133.430303s-8.254061-29.509818-34.226424-27.151515H591.530667l-0.620606 192.480969h424.556606s27.151515-2.947879 31.278545-31.868121v-133.430303zM77.948121 389.213091s-5.895758-13.001697-7.074909-34.226424v-389.740606s1.179152-89.739636 106.278788-90.918788h383.782788l-2.358303 850.261333S346.018909 976.120242 166.508606 868.693333c-90.918788-63.767273-15.32897-164.150303-15.32897-164.150303l-49.617454 1.179152S4.747636 700.974545 1.241212 607.728485v-127.534546s-4.747636-68.514909 76.73794-90.918787z m408.048485 315.888485H240.422788c-39.563636 37.236364-41.332364 56.692364-41.332364 56.692363s-30.099394 45.459394 34.847031 67.335758c119.83903 22.993455 252.121212-124.028121 252.121212-124.028121zM170.139152 384.496485H525.032727v-448.760243H179.572364c-35.995152-1.179152-39.563636 28.361697-39.563637 28.361697V341.98497c-2.358303 37.794909 30.099394 42.511515 30.099394 42.511515z m-99.762425 224.349091C74.472727 637.827879 101.624242 640.775758 101.624242 640.775758h424.556606l-0.620606-192.48097H104.572121c-25.972364-2.358303-34.226424 27.151515-34.226424 27.151515v133.430303z"  horiz-adv-x="1117" />

    
    <glyph glyph-name="youhuizhekoufuliquanqianhongbaorenminbi" unicode="&#59755;" d="M443.335111 454.286222H398.222222a28.444444 28.444444 0 1 1 0-56.888889h85.333334v-56.888889h-85.333334a28.444444 28.444444 0 1 1 0-56.888888h85.333334v-85.333334a28.444444 28.444444 0 0 1 56.888888 0v85.333334h85.333334a28.444444 28.444444 0 0 1 0 56.888888h-85.333334v56.888889h85.333334a28.444444 28.444444 0 0 1 0 56.888889h-43.093334l81.891556 81.92a28.444444 28.444444 0 1 1-40.220444 40.192l-111.331556-111.331555-111.36 111.331555a28.444444 28.444444 0 1 1-40.220444-40.220444l81.891555-81.891556zM56.888889 497.777778V696.888889a56.888889 56.888889 0 0 0 56.888889 56.888889h796.444444a56.888889 56.888889 0 0 0 56.888889-56.888889v-199.111111a113.777778 113.777778 0 1 1 0-227.555556v-199.111111a56.888889 56.888889 0 0 0-56.888889-56.888889H113.777778a56.888889 56.888889 0 0 0-56.888889 56.888889v199.111111a113.777778 113.777778 0 1 1 0 227.555556z"  horiz-adv-x="1024" />

    
    <glyph glyph-name="shi" unicode="&#58902;" d="M960 384c0-14.08-11.52-25.6-25.6-25.6H537.6v-396.8c0-14.08-11.52-25.6-25.6-25.6s-25.6 11.52-25.6 25.6V358.4H89.6C75.52 358.4 64 369.92 64 384c0 14.08 11.52 25.6 25.6 25.6h396.8V806.4c0 14.08 11.52 25.6 25.6 25.6s25.6-11.52 25.6-25.6v-396.8h396.8c14.08 0 25.6-11.52 25.6-25.6z"  horiz-adv-x="1024" />

    
    <glyph glyph-name="message" unicode="&#58881;" d="M64 816.1v-720h159.9l74.2-144.2 184.2 144.2H960v720H64z m846-670H465.1l-13.6-10.6-136.6-107-46.5 90.5-14 27.1H114v620h796v-620zM321.7 414h-50V514h50v-100z m210.3 0h-50V514h50v-100z m220.3 0h-50V514h50v-100z"  horiz-adv-x="1024" />

    
    <glyph glyph-name="quanyiguanli" unicode="&#59708;" d="M1010.3 499.4L835.5 836.1c-8 15.3-23.7 24.9-40.8 24.9H229.3c-17.1 0-32.9-9.6-40.8-24.9L13.7 499.4c-8.8-17-6.4-37.7 6.2-52.1l457.5-524.5c8.8-10 21.3-15.8 34.6-15.8 13.2 0 25.8 5.8 34.6 15.8l457.5 524.5c12.5 14.4 15 35.1 6.2 52.1z m-195.6-22L546.2 177.7c-8.7-9.7-21.1-15.3-34.1-15.3s-25.4 5.6-34.2 15.3L209.3 477.4c-11 12.3-14.7 29.6-9.6 45.3 5.1 15.8 18.1 27.6 34.1 31.1 16.1 3.5 32.8-2 43.8-14.3L512 277.9l234.4 261.6c11 12.5 27.8 18.2 44 14.7 16.2-3.4 29.4-15.4 34.4-31.3 5.1-15.8 1.2-33.2-10.1-45.5z m0 0"  horiz-adv-x="1024" />

    
    <glyph glyph-name="wendashixin" unicode="&#58897;" d="M853.333333 787.911111H170.666667c-34.133333 0-62.577778-28.444444-62.577778-62.577778v-540.444444c0-34.133333 28.444444-56.888889 62.577778-56.888889h199.111111l108.088889-119.466667c17.066667-17.066667 45.511111-17.066667 62.577777 0l108.088889 119.466667H853.333333c34.133333 0 62.577778 22.755556 62.577778 56.888889V725.333333c0 34.133333-28.444444 62.577778-62.577778 62.577778z m-318.577777-534.755555c0-11.377778-11.377778-22.755556-22.755556-22.755556s-22.755556 11.377778-22.755556 22.755556v22.755555c0 11.377778 11.377778 22.755556 22.755556 22.755556s22.755556-11.377778 22.755556-22.755556v-22.755555z m22.755555 142.222222c-5.688889 0-5.688889-5.688889-11.377778-5.688889-5.688889-5.688889-11.377778-11.377778-11.377777-22.755556v-11.377777c0-11.377778-11.377778-17.066667-22.755556-17.066667s-17.066667 11.377778-17.066667 22.755555c0 28.444444 11.377778 51.2 39.822223 62.577778 5.688889 0 5.688889 5.688889 11.377777 5.688889 34.133333 11.377778 62.577778 51.2 56.888889 91.022222-5.688889 39.822222-34.133333 68.266667-73.955555 73.955556-51.2 5.688889-96.711111-22.755556-102.4-73.955556V503.466667c-5.688889-5.688889-11.377778-11.377778-22.755556-11.377778s-17.066667 11.377778-17.066667 22.755555c0 34.133333 11.377778 56.888889 28.444445 85.333334 34.133333 39.822222 79.644444 51.2 125.155555 39.822222 51.2-11.377778 79.644444-45.511111 91.022223-96.711111 0-11.377778 0-17.066667 5.688889-28.444445 0-56.888889-28.444444-102.4-79.644445-119.466666z"  horiz-adv-x="1024" />

    
    <glyph glyph-name="anjuke" unicode="&#58907;" d="M518.28406 766.603636l78.661818-67.956363 134.981818-118.690909c23.272727-20.48 46.545455-40.494545 69.818182-60.974546a18.618182 18.618182 0 0 0 5.12-12.567273v-271.36c0-9.309091-5.12-13.032727-13.498182-13.032727h-186.181818c-10.705455 0-15.825455 6.050909-15.825455 18.152727V392.843636c0 13.963636 0 15.825455-15.825454 15.825455H458.240423c-14.429091 0-17.221818-3.258182-17.221818-17.221818v-156.392728a12.567273 12.567273 0 0 0-13.963636-13.032727h-186.181818c-9.309091 0-13.032727 3.723636-13.032728 13.032727V507.345455a18.618182 18.618182 0 0 0 5.585455 12.101818l147.549091 128.465454z m-4.654546 41.890909L436.36406 741.934545 300.451332 625.570909 203.171332 542.254545a19.549091 19.549091 0 0 0-11.170909-5.12H115.200423l22.807273 20.945455L347.927696 749.381818c53.061818 46.545455 106.589091 93.090909 159.650909 141.963637a11.636364 11.636364 0 0 0 18.618182 0l235.985455-214.109091 133.585454-121.483637 18.152727-16.290909H838.516787a20.945455 20.945455 0 0 0-12.101818 5.12l-303.010909 258.327273z m-465.454545-875.054545l24.203636 62.370909c16.290909 41.890909 33.047273 83.781818 49.338182 125.672727a9.774545 9.774545 0 0 0 10.705455 7.447273h37.701818a11.636364 11.636364 0 0 0 8.378182-5.585454q34.909091-88.436364 69.352727-177.338182c0-3.723636 0-7.447273 3.723636-12.567273h-46.545454s-5.12 3.723636-6.050909 6.050909-5.585455 17.687273-9.774546 26.065455a14.894545 14.894545 0 0 1-10.705454 7.447272H115.200423a13.963636 13.963636 0 0 1-9.309091-7.447272c-4.189091-8.843636-6.516364-18.152727-10.24-26.996364s-3.258182-5.12-4.654545-5.12z m768.465454 143.825455l-52.596363-55.389091 57.716363-88.436364h-47.941818s-3.723636 2.792727-5.12 4.654545l-33.512727 53.527273a22.341818 22.341818 0 0 1-17.687273-19.549091v-30.254545c0-10.24 0-9.309091-9.309091-8.843637h-32.581818V127.534545h41.425455v-100.072727a313.250909 313.250909 0 0 1 33.512727 32.116364 41.890909 41.890909 0 0 0 42.356364 17.687273 195.956364 195.956364 0 0 1 25.134545 0z m153.6-101.469091a36.305455 36.305455 0 0 0-15.825454-27.461819 90.298182 90.298182 0 0 0-78.661818-18.152727 79.127273 79.127273 0 0 0-16.756364 4.654546 74.938182 74.938182 0 0 0-39.563636 97.28 66.56 66.56 0 0 0 60.974545 46.545454 93.090909 93.090909 0 0 0 60.043636-10.24 66.094545 66.094545 0 0 0 32.116364-49.803636 244.829091 244.829091 0 0 0 0-26.065455h-110.778182a29.323636 29.323636 0 0 1 24.669091-33.978182 37.701818 37.701818 0 0 1 40.96 11.636364 6.981818 6.981818 0 0 0 4.654546 2.792727z m-664.669091-42.821819h-39.098181a75.869091 75.869091 0 0 0 0 8.378182v127.534546c0 7.447273 0 9.774545 9.309091 9.309091s20.48 0 31.650909 0v-13.963637a192.232727 192.232727 0 0 0 31.185454 15.36 62.370909 62.370909 0 0 0 57.716364-11.170909 35.374545 35.374545 0 0 0 13.032727-28.392727v-105.658182H366.545878v86.574546c0 18.152727-6.516364 26.530909-20.014546 28.392727a29.323636 29.323636 0 0 1-36.305454-23.272727 99.607273 99.607273 0 0 1 0-20.014546v-62.370909c-2.327273-3.258182-2.792727-6.516364-3.258182-10.705455z m241.105455 145.221819v-82.385455a84.247273 84.247273 0 0 1 0-9.774545c0-15.825455 6.516364-21.876364 20.48-24.203637a28.858182 28.858182 0 0 1 32.116364 15.36 64.698182 64.698182 0 0 1 4.189091 22.807273v68.887273c0 6.516364 0 9.309091 8.843636 9.309091h33.512727v-134.050909c0-8.843636-3.258182-11.636364-11.636363-10.705455a108.450909 108.450909 0 0 1-18.618182 0c-8.378182 0-12.567273 0-11.170909 10.705455a46.545455 46.545455 0 0 1 0 7.447272 62.370909 62.370909 0 0 0-59.112728-20.48 41.890909 41.890909 0 0 0-40.96 38.632728v80.523636c0 26.996364 0 27.927273 28.392728 27.927273z m-111.243636 0h40.96a837.818182 837.818182 0 0 0-4.189091-139.636364 65.163636 65.163636 0 0 0-46.545455-57.250909l-17.687273-9.309091v37.701818 3.723637c20.945455 4.654545 23.272727 21.876364 24.203637 37.701818v79.592727c5.12 15.36 4.654545 30.254545 4.654545 46.08z m41.890909 52.130909v-33.978182h-39.563637v33.978182z m-299.287273-121.949091l-24.669091 69.818182h-2.792727l-25.6-70.283637z m753.570909 13.032727a33.978182 33.978182 0 0 1-43.752727 27.927273 27.927273 27.927273 0 0 1-24.669091-27.927273z"  horiz-adv-x="1024" />

    
    <glyph glyph-name="diqiu-copy" unicode="&#58882;" d="M142.305 375.46500000000003h5.12c14.08 2.56 23.04 16.64 19.2 30.72-5.12 25.6-7.68 51.2-7.68 76.8 0 203.52 165.12 368.64 368.64 368.64 171.52 0 318.72-116.48 358.4-282.88 3.84-14.08 16.64-21.76 30.72-19.2 14.08 3.84 21.76 16.64 19.2 30.72-46.08 189.44-213.76 322.56-409.6 322.56-230.4 0-418.56-188.16-418.56-419.84 0-29.44 2.56-58.88 8.96-88.32 2.56-11.52 12.8-19.2 25.6-19.2zM1065.185 605.865c-6.4 33.28-38.4 56.32-94.72 69.12-14.08 3.84-28.16-5.12-30.72-19.2-3.84-14.08 5.12-28.16 19.2-30.72 38.4-8.96 53.76-21.76 56.32-30.72 2.56-11.52-17.92-47.36-115.2-96-88.32-44.8-211.2-84.48-344.32-112.64-133.12-28.16-261.12-42.24-359.68-37.12-108.8 5.12-142.08 29.44-144.64 40.96-1.28 8.96 8.96 28.16 44.8 55.04 11.52 7.68 14.08 24.32 5.12 35.84-7.68 11.52-24.32 14.08-35.84 5.12-49.92-37.12-71.68-72.96-64-106.24 8.96-43.52 65.28-67.84 147.2-78.08 70.4-144.64 217.6-236.8 377.6-236.8 225.28 0 409.6 175.36 418.56 400.64 81.92 44.8 130.56 93.44 120.32 140.8zM526.305 115.625c-130.56 0-250.88 70.4-317.44 181.76h25.6c98.56 0 216.32 14.08 332.8 39.68 117.76 25.6 234.24 61.44 325.12 102.4-23.04-184.32-176.64-323.84-366.08-323.84zM612.065 756.905c-12.8 3.84-28.16-2.56-32-16.64s2.56-28.16 16.64-32c52.48-16.64 99.84-51.2 133.12-96 5.12-6.4 12.8-10.24 20.48-10.24 5.12 0 10.24 1.28 15.36 5.12 11.52 8.96 14.08 24.32 5.12 35.84-39.68 53.76-96 93.44-158.72 113.92zM417.505 755.625c-12.8-5.12-20.48-19.2-16.64-32 3.84-10.24 14.08-17.92 24.32-17.92 2.56 0 5.12 0 7.68 1.28 26.88 8.96 55.04 14.08 83.2 14.08 14.08 0 25.6 11.52 25.6 25.6s-11.52 25.6-25.6 25.6c-33.28-1.28-66.56-6.4-98.56-16.64z"  horiz-adv-x="1066" />

    
    <glyph glyph-name="chuzu" unicode="&#58887;" d="M547.5 458.2c-45.1 0-81.3-36.7-81.3-81.3 0-44.6 36.2-81.8 81.3-81.8s81.3 36.7 81.3 81.3c0 44.6-36.2 81.8-81.3 81.8zM949.9 441.4L527.7 764.5c-9.4 6.9-21.8 6.9-31.2 0L74.2 441.4c-9.9-7.4-12.9-20.8-7.9-31.7 4.5-9.4 14.4-14.9 24.3-14.9h112.5V39c0-22.3 18.3-40.6 40.6-40.6h536.7c22.8 0 41.1 18.3 41.1 41.1V394.8h112c10.4 0 19.8 5.5 24.3 14.9 5 11.3 1.5 24.2-7.9 31.7zM548 250.1c-24.3 0-47.1 6.4-66.4 18.3l-28.2-33.7 39.6-33.2c9.4-7.9 10.9-22.3 3-31.7-7.9-9.4-22.3-10.9-31.7-3L424.6 200l-15.4-18.3 36.7-30.7c9.4-7.9 10.9-22.3 3-31.7-7.9-9.4-22.3-10.9-31.7-3L372.6 154c-4 0.5-7.9 2-11.9 5-9.4 7.9-10.9 22.3-3 31.7l90.2 107.5c-16.8 21.8-27.3 49.1-27.3 78.8 0 69.9 57 126.9 126.9 126.9s126.9-57 126.9-126.9S617.9 250.1 548 250.1z"  horiz-adv-x="1024" />

    
    <glyph glyph-name="icon_dianwei" unicode="&#58966;" d="M513.748293 41.58439a115.637073 115.637073 0 0 0-95.157073 49.95122L237.268293 355.777561A344.163902 344.163902 0 0 0 274.481951 796.097561a336.171707 336.171707 0 0 0 239.266342 99.902439h2.497561a335.921951 335.921951 0 0 0 239.516097-102.4 343.164878 343.164878 0 0 0 37.962927-433.576585l-1.998049-2.997074-182.821463-265.240975a115.637073 115.637073 0 0 0-95.157073-50.200976z m0 777.490732a260.745366 260.745366 0 0 1-185.568781-77.174634 266.739512 266.739512 0 0 1-29.221463-341.916098l182.072195-264.491707a39.461463 39.461463 0 0 1 64.936585 0l182.072195 264.491707 1.498537 2.247805a265.990244 265.990244 0 0 1-28.222439 337.420488 260.49561 260.49561 0 0 1-185.568781 79.422439zM761.756098 381.752195zM513.748293 406.478049a158.09561 158.09561 0 1 0 156.846829 158.09561 157.596098 157.596098 0 0 0-156.846829-158.09561z m0 239.266341a81.170732 81.170732 0 1 1 80.671219-81.170731A80.920976 80.920976 0 0 1 513.748293 646.243902zM973.299512-128H50.700488a37.962927 37.962927 0 0 0-30.220488 14.985366 38.712195 38.712195 0 0 0-6.743415 33.217561l89.412683 339.16878a38.212683 38.212683 0 1 0 74.92683-19.730731L100.152195-51.075122h821.198049l-90.411707 288.967805a38.212683 38.212683 0 1 0 72.679024 23.227317L1009.763902-78.04878a38.712195 38.712195 0 0 0-5.74439-34.216586 37.962927 37.962927 0 0 0-30.72-15.734634zM337.170732-31.843902h-3.496586a335.672195 335.672195 0 0 0-61.44 12.737561c-49.95122 15.235122-80.171707 39.461463-92.409756 71.929756a93.159024 93.159024 0 0 0 32.468293 104.897561 206.298537 206.298537 0 0 0 46.454634 30.470244 37.962927 37.962927 0 0 0 49.95122-18.981464 38.462439 38.462439 0 0 0-18.731708-49.951219c-18.232195-8.491707-43.457561-28.472195-39.960975-37.962927 4.995122-13.237073 44.206829-30.969756 89.662439-35.465366a38.462439 38.462439 0 0 0-2.497561-77.674146zM674.840976-31.843902a38.462439 38.462439 0 0 0-3.496586 76.675122c45.205854 4.49561 84.667317 22.478049 89.412683 35.465365 3.496585 9.240976-21.72878 29.47122-39.960975 37.962927a38.462439 38.462439 0 0 0 31.719024 69.931708 206.298537 206.298537 0 0 0 46.454634-30.470244 93.159024 93.159024 0 0 0 33.217561-104.647805c-12.238049-32.468293-43.457561-56.694634-92.409756-71.929756a335.672195 335.672195 0 0 0-61.44-12.737561z"  horiz-adv-x="1024" />

    
    <glyph glyph-name="maifangguanli" unicode="&#59097;" d="M465.3 317.7c0 95.8 73.8 174.2 167.7 181.7L481.4 621.5c-16.9 13.6-44.5 13.6-61.4 0L320.1 541v41.5c0 10.6-8.6 19.3-19.3 19.3h-18.3c-10.6 0-19.3-8.6-19.3-19.3V495l-47.7-38.2c-16.9-13.6-16.9-35.8 0-49.4l13.4-10.8v-226.4c0-19.2 19.5-35 43.4-35h356.5c2.2 0 4.4 0.2 6.6 0.5-94.9 6.3-170.1 85.3-170.1 182zM349.1 325c0-8.1-6.6-14.7-14.7-14.7h-28.2c-8.1 0-14.7 6.6-14.7 14.7v28.2c0 8.1 6.6 14.7 14.7 14.7h28.2c8.1 0 14.7-6.6 14.7-14.7V325z m0 0M648.9 489c-94.6 0-171.3-76.7-171.3-171.4S554.3 146.2 649 146.2c94.6 0 171.4 76.7 171.4 171.4-0.2 94.6-76.9 171.4-171.5 171.4z m-0.6-311.5c-77.4 0-140.1 62.7-140.1 140.1s62.7 140.1 140.1 140.1 140.1-62.8 140.1-140.1c0-77.4-62.7-140.1-140.1-140.1z m0 0M557.7 377.6v-18h27.1V377.7l-27.1-0.1zM598.6 377.6v-15.1c0-0.7-0.1-1.2-0.2-1.7 0.1-0.1 0.1-0.3 0.1-0.5v-0.3l0.1-0.4h145.9v18H598.6zM585.8 373.7c0 0.1-0.1 0.2-0.1 0.3v-0.3h0.1zM553.5 320.7v-17.2H700c0 0.2-0.1 0.4-0.1 0.6v15.5c0 0.4 0.1 0.7 0.1 1.1H553.5zM712.4 320.7v-17.2h27v17.2zM557.7 264.6h186.8v-18H557.7z"  horiz-adv-x="1024" />

    
    <glyph glyph-name="dianhua" unicode="&#58883;" d="M682.24937681 430.73816707c0-16.6955736 11.11573701-27.81131063 27.81131062-27.81131065s27.81131063 11.11573701 27.81131065 27.81131065a167.39509273 167.39509273 0 0 1-166.91179993 166.91179993c-16.6955736 0-27.81131063-11.11573701-27.81131064-27.81131065s11.15967316-27.81131063 27.81131064-27.81131063a111.59672847 111.59672847 0 0 0 111.28917866-111.28917866z m111.28917868 0c0-16.6955736 11.11573701-27.81131063 27.81131062-27.81131064s27.81131063 11.11573701 27.81131064 27.81131064c0 152.98417694-125.21680165 278.20097786-278.2009786 278.20097782-16.6955736 0-27.81131063-11.15967316-27.81131064-27.85524599s11.15967316-27.81131063 27.81131063-27.81131063c122.4049157 0 222.57835657-100.17344164 222.57835733-222.53442121z m-375.56253352 97.3615549c30.62319661 30.57926125 33.3911472 77.89803145 5.57983582 111.28917865l-86.24581788 108.47729271c-27.81131063 36.15909783-80.66598129 41.73893363-116.86901447 13.92762298-2.76795061-2.81188597-5.53590045-2.81188597-5.53590123-5.57983659l-75.13008083-75.13008082c-72.31819488-72.31819488 30.6231966-267.04130545 217.04245611-453.41662883C543.14888751 41.29194591999999 735.06011211-58.88149494000004 807.378307 10.66874931999996l75.13008083 75.13008086c33.39114721 33.39114721 33.39114721 86.24581787 0 116.82507909L876.97248739 208.20374586000003l-108.52122807 86.24581788c-33.34721108 27.81131063-80.62204594 25.04336002-111.24524252-5.5798366L609.93118194 241.55095692999998c-50.08672082 30.6231966-94.59360506 64.01434382-133.56458886 102.94139226-38.92704767 38.97098378-72.27425951 83.47786803-102.89745534 133.56458808l44.50688424 50.0427847z m-38.92704766 75.13008082c8.34778642-11.15967316 8.34778642-27.85524674-2.81188674-36.20303316l-61.20245787-63.9704077a29.56873957 29.56873957 0 0 1-5.53590043-33.39114722 721.42452061 721.42452061 0 0 1 122.4049157-164.09991397 721.51239131 721.51239131 0 0 1 164.09991397-122.40491491 29.56873957 29.56873957 0 0 1 33.39114644 5.57983581l63.97040847 63.97040846c11.15967316 11.11573702 25.04336002 11.11573702 36.20303317 2.76795061L838.04543972 166.46481223s2.76795062 0 2.76794986-2.76795063a26.88866043 26.88866043 0 0 0 0-38.97098378l-75.13008087-75.13008085c-36.1151617-36.1151617-208.60679821 55.6665574-372.75064753 217.04245612-164.09991397 161.33196337-253.11368245 336.54761436-216.95458463 372.75064753l77.8540961 77.89803145c11.15967316 8.34778642 30.6231966 8.34778642 38.97098303-5.57983657l86.24581862-108.52122805z"  horiz-adv-x="1024" />

    


  </font>
</defs>
</svg>
